# xmcd
#
# Track frame offsets:
#	150
#	28809
#	62271
#	82322
#	102412
#	147292
#	165322
#	187808
#	212172
#	247893
#	277676
#	296554
#
# Disc length: 4251 seconds
#
# Revision: 0
# Processed by: cddbd v1.5.2PL0 Copyright (c) Steve Scherf et al.
# Submitted via: EZCDAudioConverter 5.1.1.1
#
DISCID=a210990c
DTITLE=Meena Cryle and The Chris Fillmore Band - In Concert 
DYEAR=2017
DGENRE=Blues
TTITLE0=Bright Lights
TTITLE1=Since I Met You Baby
TTITLE2=Rather Go Blind
TTITLE3=Enough Is Enough
TTITLE4=It Makes Me Scream
TTITLE5=Take This Pressure off of Me
TTITLE6=Lord Have Mercy
TTITLE7=Tell Me
TTITLE8=You Don't Know
TTITLE9=This Is My Will
TTITLE10=You Can Have My Husband
TTITLE11=Ti-Na-Nee-Na-Nuh
EXTD=
EXTT0=
EXTT1=
EXTT2=
EXTT3=
EXTT4=
EXTT5=
EXTT6=
EXTT7=
EXTT8=
EXTT9=
EXTT10=
EXTT11=
PLAYORDER=
